<svg width="181" height="100" viewBox="0 0 181 100" fill="none" xmlns="http://www.w3.org/2000/svg">
<path d="M28.205 3.45802V8.44201C28.205 10.712 28.154 13.016 28.068 15.342C28.017 16.161 28.085 17.953 28.268 20.735V21.623C28.268 22.033 28.285 22.34 28.302 22.545C28.334 22.7711 28.4286 22.9838 28.575 23.159C28.7771 23.3825 29.0591 23.5173 29.36 23.534H30.043C30.2427 23.5694 30.4272 23.664 30.5724 23.8056C30.7177 23.9472 30.817 24.1292 30.8574 24.3279C30.8978 24.5267 30.8776 24.7331 30.7992 24.9201C30.7208 25.1072 30.588 25.2664 30.418 25.377C30.0608 25.6382 29.6542 25.8239 29.223 25.923C28.728 26.008 28.472 26.35 28.472 26.947C28.4222 29.2944 28.5133 31.6426 28.745 33.979C28.796 34.474 28.864 35.259 28.945 36.3C29.026 37.341 29.133 38.3 29.218 39.133C29.303 39.966 29.418 40.754 29.559 41.488C29.61 41.71 29.659 42.154 29.73 42.788C29.7755 43.2711 29.8554 43.7503 29.969 44.222C30.1139 44.648 30.0896 45.1134 29.901 45.522C29.7284 45.8716 29.4386 46.1494 29.082 46.307C28.6875 46.4772 28.2753 46.603 27.853 46.682C27.3285 46.7463 26.7981 46.6257 26.353 46.341C26.2364 46.2393 26.0949 46.1703 25.943 46.141C25.073 46.141 24.492 45.578 24.168 44.434C23.5469 41.9372 23.0681 39.4071 22.734 36.856C22.4367 34.0662 22.2998 31.2616 22.324 28.456C22.324 27.995 22.256 27.722 22.124 27.603C21.992 27.484 21.697 27.484 21.236 27.569C20.69 27.62 19.922 27.723 18.915 27.91C17.908 28.097 17.191 28.234 16.73 28.32C16.4195 28.3451 16.1235 28.4624 15.8803 28.657C15.637 28.8516 15.4576 29.1146 15.365 29.412C13.539 34.3787 12.3783 37.6787 11.883 39.312C11.337 41.138 10.91 42.812 10.583 44.364C10.5025 44.7701 10.4454 45.1804 10.412 45.593C10.36 46.1448 10.2688 46.6922 10.139 47.231C10.0608 47.6258 9.85741 47.985 9.55897 48.255C9.2296 48.5023 8.83746 48.6521 8.42713 48.6874C8.01681 48.7228 7.6048 48.6423 7.23799 48.455C6.47952 48.1255 5.78597 47.6633 5.18998 47.09C4.94086 46.8318 4.76036 46.5154 4.66499 46.1695C4.56961 45.8236 4.5624 45.4594 4.64399 45.11C5.10499 42.652 5.34397 41.304 5.39497 41.082C6.05533 38.5294 6.87631 36.0211 7.85298 33.572C8.17698 32.838 8.41598 32.207 8.60398 31.661C8.79198 31.1664 8.82532 30.859 8.70399 30.739C8.58499 30.62 8.27699 30.639 7.78199 30.773C6.98874 30.9543 6.16032 30.9068 5.39299 30.636C5.10459 30.5636 4.82858 30.4486 4.57399 30.295C4.24999 30.107 4.04497 30.005 3.95997 29.954C3.4993 29.766 3.4993 29.493 3.95997 29.135C4.22194 28.9575 4.49556 28.7978 4.77897 28.657C7.23697 27.701 8.75598 27.104 9.35298 26.882C9.71871 26.7604 10.0511 26.5552 10.3236 26.2826C10.5961 26.0101 10.8014 25.6777 10.923 25.312C11.111 24.902 11.298 24.425 11.503 23.878C11.708 23.331 11.896 22.854 12.049 22.444C12.202 22.034 12.39 21.574 12.595 21.044C12.8 20.514 12.988 20.037 13.175 19.576C13.26 19.354 14.045 17.596 15.496 14.319C15.82 13.636 16.93 11.503 18.841 7.90202C19.984 5.76902 20.735 4.35201 21.094 3.66901C21.282 3.31101 21.384 3.06902 21.435 2.98602C21.6264 2.70473 21.8437 2.44192 22.084 2.20101C22.3112 1.98087 22.5945 1.82729 22.903 1.75701C23.135 1.70616 23.3632 1.63933 23.586 1.55701C23.9217 1.48057 24.2658 1.44698 24.61 1.45702C25.173 1.44002 25.51 1.42301 25.6 1.42301C27.334 1.27401 28.205 1.95602 28.205 3.45802ZM21.719 14.244C19.5343 18.9373 18.0096 22.4874 17.145 24.894L17.418 25.031C18.895 24.9214 20.3581 24.67 21.787 24.28C21.9554 24.2458 22.105 24.1498 22.2061 24.0107C22.3071 23.8717 22.3524 23.6998 22.333 23.529V22.778C22.248 19.006 22.196 16.958 22.196 16.634V13.834C22.009 13.835 21.856 13.972 21.719 14.245V14.244Z" fill="#710234"/>
<path d="M63.5 35.885C63.6018 36.0977 63.6258 36.3394 63.568 36.568C63.3591 39.3787 62.4175 42.0855 60.837 44.419C60.1511 45.5511 59.1229 46.4358 57.901 46.945C56.211 47.545 54.778 46.826 53.601 44.829C53.3196 44.3485 53.145 43.813 53.089 43.259C53.0137 42.4418 53.0023 41.62 53.055 40.801C53.106 39.76 53.123 39.18 53.123 39.094C53.123 36.773 53.208 34.503 53.396 32.267C53.447 31.772 53.55 29.267 53.737 24.757L53.537 24.62C53.3086 24.8729 53.1446 25.1772 53.059 25.507C52.974 25.865 52.24 28.307 50.874 32.807C49.594 37.2617 48.7746 40.311 48.416 41.955L47.802 44.208C47.5037 45.2111 47.2982 46.2394 47.188 47.28C47.188 47.468 47.051 47.638 46.778 47.826C46.363 48.1983 45.8219 48.3985 45.2645 48.3858C44.7072 48.3732 44.1756 48.1487 43.778 47.758L43.539 47.519C43.4772 47.4566 43.4201 47.3898 43.368 47.319C43.307 47.2348 43.2402 47.1549 43.168 47.08L42.968 46.88C42.6698 46.6883 42.442 46.4049 42.3189 46.0725C42.1957 45.7401 42.1838 45.3767 42.285 45.037C42.322 44.2628 42.2992 43.4868 42.217 42.716C42.1896 41.494 42.2696 40.272 42.456 39.064C42.656 37.494 42.763 36.589 42.763 36.364C42.848 35.323 42.899 34.606 42.899 34.248C42.7743 34.2412 42.6512 34.2786 42.5513 34.3536C42.4515 34.4286 42.3812 34.5364 42.353 34.658V34.795C41.807 36.16 41.073 38.072 40.168 40.53C40.117 40.718 39.844 41.503 39.315 42.919C38.786 44.335 38.393 45.394 38.12 46.128C37.7877 46.8204 37.2009 47.3578 36.482 47.628C36.1722 47.806 35.8235 47.9053 35.4664 47.9171C35.1094 47.929 34.7549 47.853 34.434 47.696C33.2934 47.1038 32.3637 46.1738 31.772 45.033C31.6067 44.7686 31.5361 44.4558 31.572 44.146C31.7982 42.9304 31.9124 41.6965 31.913 40.46C31.9983 38.2754 32.3396 34.7027 32.937 29.742C33.295 26.516 33.568 23.598 33.756 21.004C33.756 20.867 33.91 19.775 34.234 17.727C34.285 17.454 34.388 17.334 34.575 17.386C34.797 17.471 35.138 17.574 35.565 17.693C35.958 17.7977 36.3451 17.9229 36.725 18.068C37.0573 18.1961 37.3511 18.4075 37.578 18.682C38.0177 19.0433 38.3092 19.5537 38.397 20.116C38.6331 22.2695 38.7243 24.4363 38.67 26.602C38.6487 27.197 38.6947 27.7924 38.807 28.377C39.029 28.428 39.217 28.309 39.353 28.036C40.036 26.483 40.445 25.493 40.582 25.036C40.719 24.712 40.94 24.236 41.265 23.602C41.5035 23.1629 41.7091 22.7066 41.88 22.237C41.931 22.1 42.051 21.81 42.255 21.349C42.4218 20.9929 42.57 20.6285 42.699 20.257C42.7109 20.1418 42.7495 20.0309 42.8117 19.9331C42.8739 19.8354 42.958 19.7535 43.0574 19.6939C43.1568 19.6343 43.2686 19.5987 43.3842 19.5899C43.4997 19.581 43.6157 19.5992 43.723 19.643C44.7057 19.8762 45.7129 19.9907 46.723 19.984C47.0349 19.9976 47.3378 20.0931 47.6011 20.261C47.8645 20.4288 48.0789 20.663 48.223 20.94C48.7333 21.7581 48.9943 22.7071 48.974 23.671C49.3098 23.387 49.5486 23.0052 49.657 22.579C50.4547 20.3836 51.4369 18.2597 52.593 16.23C52.917 15.769 53.259 15.616 53.617 15.752C53.9608 15.9016 54.3345 15.97 54.709 15.952C55.0292 15.9378 55.35 15.9606 55.665 16.02C55.9825 16.0735 56.2832 16.2 56.5435 16.3895C56.8038 16.579 57.0165 16.8263 57.165 17.112C57.9822 18.7676 58.403 20.5907 58.394 22.437C58.394 24.212 58.343 26.755 58.257 30.083C58.257 30.407 58.223 30.919 58.157 31.653C58.091 32.387 58.037 33.001 57.986 33.496C57.9387 34.0647 57.9501 34.6367 58.02 35.203C58.0688 35.7637 58.195 36.3149 58.395 36.841C58.446 36.653 58.549 36.312 58.702 35.783C58.855 35.254 58.975 34.861 59.043 34.588C59.111 34.315 59.214 34.161 59.35 34.11C59.5052 34.0585 59.6729 34.0585 59.828 34.11C60.8323 34.4287 61.8133 34.8167 62.764 35.271C63.0758 35.3794 63.3375 35.5977 63.5 35.885Z" fill="#710234"/>
<path d="M92.377 36.841C92.5616 36.9797 92.6905 37.1797 92.7406 37.4051C92.7906 37.6304 92.7584 37.8663 92.6499 38.07C92.292 38.8196 92.0283 39.6106 91.865 40.425C91.7102 41.1812 91.4935 41.9234 91.2169 42.644C90.4128 44.314 89.2743 45.801 87.872 47.013C87.2317 47.6675 86.4948 48.22 85.687 48.651C85.2395 48.8762 84.7485 49.0018 84.2479 49.019C83.7473 49.0363 83.2489 48.9448 82.7869 48.751C81.7187 48.2393 80.7395 47.5594 79.8869 46.737C79.0931 45.7715 78.6366 44.573 78.5869 43.324C78.5359 42.829 78.502 42.112 78.45 41.174C78.398 40.236 78.382 39.689 78.382 39.501C78.3785 39.1206 78.285 38.7464 78.109 38.409C77.7206 38.7002 77.434 39.1065 77.2899 39.57C77.1019 39.894 76.6899 40.799 76.0609 42.301C75.3421 43.8113 74.4487 45.232 73.3989 46.534C73.1055 46.9375 72.7273 47.2718 72.2909 47.5136C71.8546 47.7555 71.3706 47.899 70.8729 47.934C70.3723 48.0043 69.8623 47.9643 69.3787 47.817C68.8951 47.6697 68.4494 47.4185 68.073 47.081C67.0283 46.3157 66.1072 45.3947 65.3419 44.35C64.2974 42.861 63.6833 41.1131 63.567 39.298C63.3811 37.275 63.5194 35.2353 63.9769 33.256C64.4141 31.2888 65.0077 29.3597 65.752 27.487C66.4262 25.7801 67.2486 24.1354 68.2099 22.572C68.5339 22.026 68.9949 21.241 69.6099 20.217C70.2249 19.193 70.6509 18.493 70.8729 18.135C70.9579 17.947 71.073 17.862 71.214 17.862C73.125 17.725 74.914 17.589 76.607 17.452C76.795 17.452 76.965 17.469 77.153 17.486C77.3434 17.5115 77.528 17.5693 77.6989 17.657C77.8869 17.742 78.04 17.811 78.177 17.857C78.3574 17.9283 78.5291 18.0199 78.6889 18.13C78.8487 18.2401 79.0205 18.3317 79.201 18.403C79.525 18.54 79.713 18.898 79.781 19.495C79.7833 19.9114 79.9143 20.3169 80.156 20.656C80.4965 20.891 80.9035 21.0105 81.317 20.997C81.9596 21.0451 82.5648 21.3177 83.0266 21.7671C83.4884 22.2165 83.7774 22.814 83.843 23.455C83.928 24.735 83.9969 25.503 84.0139 25.776C83.9935 26.5417 83.9267 27.3054 83.8139 28.063C83.6599 29.309 83.575 30.077 83.575 30.35C83.3103 34.1251 83.3561 37.9155 83.7119 41.683C83.7195 41.8043 83.7541 41.9223 83.8131 42.0285C83.8721 42.1348 83.954 42.2265 84.0529 42.297C84.2409 42.024 84.411 41.734 84.599 41.409C84.7997 41.0599 84.971 40.6946 85.1109 40.317C85.2293 39.9854 85.378 39.6654 85.555 39.361C85.9872 38.4372 86.4886 37.5473 87.055 36.699C87.3002 36.4111 87.6384 36.218 88.0109 36.153C89.0198 35.9226 90.0649 35.8995 91.083 36.085C91.5924 36.1699 92.0529 36.4389 92.377 36.841ZM77.3579 20.525C77.4089 20.167 77.3409 19.996 77.1579 20.047C77.1314 20.0473 77.1054 20.0536 77.0817 20.0654C77.058 20.0771 77.0372 20.0941 77.021 20.115C76.4373 20.4253 75.926 20.8557 75.521 21.378C75.1625 21.8038 74.8426 22.2606 74.565 22.743C74.377 23.084 74.1039 23.682 73.7459 24.552C72.4275 27.3354 71.3097 30.2093 70.401 33.152C69.7675 35.3967 69.6509 37.7558 70.06 40.052C70.3972 39.7838 70.6565 39.4303 70.8109 39.028C72.3109 35.563 73.4909 32.867 74.3609 30.904C75.0346 29.3736 75.6049 27.7998 76.068 26.193C76.426 24.742 76.6999 23.684 76.8869 23.053C77.123 22.227 77.2807 21.3806 77.3579 20.525Z" fill="#710234"/>
<path d="M114.974 37.182C116.613 38.082 117.108 39.691 116.474 41.961C116.021 43.5088 115.118 44.8871 113.88 45.921C113.276 46.5073 112.469 46.8376 111.627 46.843C110.803 46.8793 109.997 46.5983 109.374 46.058C108.746 45.5258 108.174 44.9311 107.667 44.283C107.122 43.6688 106.766 42.9099 106.643 42.098C106.592 41.876 106.507 41.398 106.37 40.664C106.258 40.1245 106.191 39.5766 106.17 39.026C106.17 38.531 106.05 37.439 105.829 35.749C105.614 34.4404 105.568 33.1094 105.692 31.789C105.692 31.738 105.641 31.26 105.556 30.355C104.789 31.2352 104.25 32.2901 103.986 33.427C103.303 35.612 102.569 38.138 101.801 41.005C101.34 42.643 100.76 44.538 100.026 46.671C99.9406 46.893 99.874 47.0977 99.826 47.285C99.7567 47.6372 99.6066 47.9685 99.3874 48.2528C99.1682 48.537 98.886 48.7665 98.563 48.923C98.2481 49.0803 97.899 49.1565 97.5473 49.1446C97.1956 49.1327 96.8525 49.0332 96.549 48.855C96.3115 48.7621 96.083 48.648 95.866 48.514C95.644 48.3807 95.4049 48.244 95.1489 48.104C94.8929 47.967 94.688 47.848 94.501 47.763C93.955 47.49 93.545 46.688 93.272 45.374C93.1575 44.24 93.1347 43.0987 93.204 41.961C93.3373 38.4944 93.7469 34.034 94.4329 28.58C94.5179 27.846 94.655 26.737 94.843 25.235C95.031 23.733 95.167 22.59 95.253 21.822C95.3046 21.3685 95.3046 20.9105 95.253 20.457C95.2011 19.9611 95.2595 19.4598 95.424 18.989C95.578 18.562 95.8509 18.357 96.2089 18.409C96.6189 18.4604 96.9263 18.4937 97.131 18.509C97.4187 18.5476 97.7036 18.6047 97.984 18.68C98.2912 18.7453 98.5892 18.8484 98.871 18.987C99.1203 19.1177 99.3599 19.2661 99.588 19.431C99.842 19.6197 100.062 19.8507 100.237 20.114C100.643 20.6598 100.88 21.3122 100.92 21.991C100.967 22.8117 100.934 23.635 100.82 24.449C100.727 25.094 100.67 25.7437 100.649 26.395C100.73 26.3933 100.81 26.3819 100.888 26.361C100.956 26.344 101.007 26.276 101.059 26.19C101.099 26.1268 101.132 26.0598 101.159 25.99C101.176 25.939 101.21 25.871 101.259 25.751C101.289 25.6635 101.335 25.5824 101.395 25.512C101.668 24.829 102.129 23.618 102.795 21.894C103.461 20.17 103.99 18.839 104.395 17.934C104.4 17.8625 104.423 17.7935 104.463 17.734C104.501 17.6624 104.546 17.5953 104.599 17.534C104.615 17.4108 104.662 17.2935 104.735 17.193C104.892 16.7687 105.123 16.3756 105.418 16.032C105.683 15.9412 105.972 15.9412 106.237 16.032C106.698 16.083 107.073 16.117 107.398 16.169C107.503 16.177 107.606 16.1999 107.705 16.237C107.804 16.2741 107.907 16.297 108.012 16.305C108.642 16.2494 109.27 16.4379 109.766 16.8316C110.261 17.2254 110.587 17.7943 110.675 18.421C111.074 20.466 111.212 22.5533 111.085 24.633C110.949 28.78 110.897 31.784 110.914 33.644C110.94 35.5848 111.088 37.522 111.358 39.444C111.409 39.768 111.495 39.939 111.631 39.99C111.819 40.075 111.989 39.939 112.177 39.58C112.262 39.443 112.399 39.256 112.587 39C112.775 38.744 112.928 38.505 113.065 38.283C113.199 38.0661 113.313 37.8375 113.406 37.6C113.728 36.909 114.24 36.773 114.974 37.182Z" fill="#710234"/>
<path d="M141.258 35.544C141.445 35.5235 141.634 35.5528 141.807 35.6289C141.979 35.705 142.128 35.8252 142.239 35.9775C142.35 36.1297 142.418 36.3085 142.438 36.4958C142.457 36.6831 142.427 36.8722 142.35 37.044C142.214 37.5823 142.032 38.1077 141.804 38.614C141.616 39.075 141.429 39.553 141.224 40.082C141.019 40.611 140.814 41.174 140.61 41.789C140.406 42.404 140.235 42.898 140.098 43.257C139.588 44.6652 138.85 45.9798 137.913 47.148C137.421 47.7348 136.749 48.1429 136.001 48.309C135.254 48.4951 134.467 48.4473 133.748 48.172C132.784 47.8519 131.883 47.3667 131.086 46.738C130.852 46.4913 130.635 46.229 130.437 45.953C130.181 45.6117 130.01 45.3727 129.925 45.236C129.601 44.912 129.396 44.741 129.276 44.724C129.156 44.707 128.969 44.843 128.696 45.168C128.034 45.923 127.277 46.5886 126.443 47.148C125.578 47.6567 124.576 47.8836 123.576 47.797C122.474 47.7277 121.423 47.3091 120.576 46.602L120.235 46.402C119.439 45.8806 118.76 45.1982 118.243 44.3987C117.727 43.5992 117.383 42.7003 117.235 41.76C116.817 39.3661 116.817 36.9179 117.235 34.524C117.658 31.8306 118.32 29.1804 119.215 26.605C119.391 26.1378 119.596 25.6819 119.829 25.24C119.966 24.916 120.29 24.165 120.785 22.987C121.555 21.3061 122.592 19.7614 123.857 18.413C124.06 18.2005 124.304 18.0307 124.573 17.9134C124.843 17.7961 125.133 17.7338 125.427 17.73C126.614 17.6222 127.81 17.6896 128.977 17.93C129.523 18.015 129.864 18.015 130.001 17.896C130.187 17.625 130.282 17.3024 130.274 16.974C130.462 15.66 130.615 14.294 130.752 12.874C130.837 11.696 131.042 9.81902 131.366 7.27402C131.485 6.7559 131.576 6.23183 131.639 5.70403C131.724 5.02136 131.791 4.54335 131.839 4.27002C131.839 4.08202 131.856 3.79203 131.873 3.38303C131.89 2.97403 131.924 2.63202 131.941 2.35902C131.967 2.07911 132.061 1.80972 132.214 1.57402C132.358 1.32771 132.59 1.14487 132.863 1.06203C133.409 1.01103 133.763 0.994019 133.921 0.994019C134.276 1.02113 134.629 1.06687 134.979 1.13103C135.525 1.21603 135.866 1.26802 136.003 1.26802C136.903 1.35302 137.385 1.72902 137.437 2.36002C137.5 3.98328 137.386 5.6086 137.096 7.20702C136.772 9.25502 136.601 10.62 136.55 11.307C136.55 11.768 136.226 14.379 135.594 19.158C135.543 19.568 135.509 20.011 135.458 20.489C135.407 20.967 135.373 21.479 135.321 22.025C135.269 22.571 135.236 23.032 135.221 23.39C135.206 23.748 135.153 24.19 135.085 24.69C135.017 25.19 134.948 25.68 134.885 26.158C134.822 26.636 134.765 27.08 134.714 27.489C134.714 28.035 134.646 29.008 134.514 30.389C134.382 31.77 134.292 32.864 134.241 33.632C134.19 34.127 134.104 36.585 133.968 41.005C133.936 41.4984 134.03 41.9918 134.241 42.439C134.676 41.6791 135.038 40.8791 135.32 40.05C135.457 39.726 135.627 39.333 135.832 38.855C136.037 38.377 136.225 37.916 136.412 37.49C136.599 37.064 136.753 36.654 136.89 36.295C137.045 35.7984 137.388 35.3819 137.846 35.134C138.072 35.0028 138.327 34.9281 138.588 34.9162C138.849 34.9044 139.109 34.9558 139.346 35.066C139.936 35.3759 140.592 35.5398 141.258 35.544ZM128.219 34.657C128.505 33.6346 128.654 32.5787 128.663 31.517C128.68 30.374 128.663 29.162 128.595 27.865C128.526 26.8084 128.514 25.7489 128.561 24.691C128.689 24.1781 128.723 23.6461 128.661 23.121C128.644 22.165 128.49 21.756 128.217 21.892C128.029 21.943 127.79 22.216 127.466 22.711C126.624 24.1507 126.024 25.7189 125.691 27.353C125.555 27.848 125.367 28.496 125.145 29.265C124.923 30.034 124.718 30.699 124.565 31.245C124.412 31.791 124.241 32.423 124.053 33.156C123.881 33.8082 123.744 34.4691 123.643 35.136C123.307 37.1664 123.24 39.2321 123.443 41.28C123.494 41.553 123.579 41.707 123.716 41.758C123.796 41.7646 123.876 41.7495 123.948 41.7143C124.021 41.6791 124.082 41.6251 124.126 41.558C124.314 41.285 124.689 40.758 125.252 39.958C125.815 39.158 126.225 38.576 126.481 38.183C126.737 37.79 127.044 37.261 127.403 36.583C127.732 35.9664 128.006 35.3215 128.22 34.656L128.219 34.657Z" fill="#710234"/>
<path d="M171.774 36.841C171.959 36.9797 172.088 37.1797 172.138 37.4051C172.188 37.6304 172.156 37.8663 172.047 38.07C171.689 38.8196 171.425 39.6106 171.262 40.425C171.107 41.1813 170.89 41.9234 170.613 42.644C169.809 44.314 168.67 45.801 167.268 47.013C166.628 47.6675 165.891 48.2199 165.083 48.651C164.636 48.8762 164.145 49.0018 163.644 49.019C163.143 49.0363 162.645 48.9448 162.183 48.751C161.115 48.2394 160.135 47.5594 159.283 46.737C158.489 45.7715 158.033 44.573 157.983 43.324C157.932 42.829 157.898 42.112 157.847 41.174C157.796 40.236 157.779 39.689 157.779 39.501C157.776 39.1205 157.682 38.7462 157.506 38.409C157.118 38.7003 156.831 39.1066 156.687 39.57C156.499 39.894 156.087 40.799 155.458 42.301C154.739 43.8113 153.846 45.232 152.796 46.534C152.503 46.9375 152.124 47.2719 151.688 47.5137C151.252 47.7556 150.768 47.899 150.27 47.934C149.769 48.0043 149.259 47.9643 148.776 47.817C148.292 47.6697 147.846 47.4185 147.47 47.081C146.425 46.3157 145.504 45.3946 144.739 44.35C143.695 42.861 143.08 41.1131 142.964 39.298C142.778 37.275 142.917 35.2354 143.374 33.256C143.811 31.2889 144.405 29.3597 145.149 27.487C145.823 25.7801 146.646 24.1354 147.607 22.572C147.931 22.026 148.392 21.241 149.007 20.217C149.622 19.193 150.048 18.493 150.27 18.135C150.355 17.947 150.47 17.862 150.611 17.862C152.522 17.725 154.311 17.589 156.004 17.452C156.192 17.452 156.362 17.469 156.55 17.486C156.74 17.5115 156.925 17.5693 157.096 17.657C157.284 17.742 157.437 17.811 157.574 17.857C157.754 17.9284 157.926 18.02 158.086 18.13C158.246 18.2401 158.418 18.3317 158.598 18.403C158.922 18.54 159.11 18.898 159.178 19.495C159.18 19.9114 159.311 20.317 159.553 20.656C159.893 20.8908 160.3 21.0103 160.713 20.997C161.356 21.0451 161.961 21.3177 162.423 21.7671C162.884 22.2165 163.173 22.814 163.239 23.455C163.324 24.735 163.393 25.503 163.41 25.776C163.39 26.5417 163.323 27.3054 163.21 28.063C163.057 29.309 162.971 30.077 162.971 30.35C162.706 34.1251 162.752 37.9155 163.108 41.683C163.116 41.8043 163.15 41.9223 163.209 42.0285C163.268 42.1348 163.35 42.2265 163.449 42.297C163.637 42.024 163.807 41.734 163.995 41.409C164.196 41.0599 164.367 40.6947 164.507 40.317C164.625 39.9854 164.774 39.6654 164.951 39.361C165.383 38.4372 165.885 37.5473 166.451 36.699C166.696 36.4111 167.034 36.218 167.407 36.153C168.416 35.9226 169.461 35.8995 170.479 36.085C170.989 36.1697 171.45 36.4387 171.774 36.841ZM156.755 20.525C156.806 20.167 156.738 19.996 156.555 20.047C156.529 20.0475 156.503 20.0538 156.479 20.0656C156.456 20.0773 156.435 20.0942 156.419 20.115C155.835 20.4253 155.324 20.8557 154.919 21.378C154.561 21.8038 154.241 22.2606 153.963 22.743C153.775 23.084 153.502 23.682 153.144 24.552C151.826 27.3353 150.708 30.2093 149.799 33.152C149.165 35.3967 149.049 37.7558 149.458 40.052C149.795 39.7838 150.054 39.4302 150.209 39.028C151.709 35.563 152.888 32.867 153.759 30.904C154.433 29.3736 155.003 27.7997 155.466 26.193C155.824 24.742 156.097 23.684 156.285 23.053C156.521 22.227 156.678 21.3806 156.755 20.525Z" fill="#710234"/>
<path d="M46.74 99.563C46.2213 99.5716 45.7112 99.4291 45.272 99.153C44.7419 98.7934 44.2698 98.355 43.872 97.853C43.0342 96.8612 42.4279 95.6954 42.097 94.44C41.7332 92.9388 41.5046 91.408 41.414 89.866C41.329 88.586 41.277 87.666 41.277 87.066C41.1848 83.527 41.8497 80.0092 43.2271 76.748C44.6045 73.4868 46.6628 70.5574 49.264 68.156C49.5789 67.8592 49.8271 67.4987 49.9919 67.0985C50.1567 66.6983 50.2345 66.2676 50.22 65.835C50.032 60.698 49.657 55.117 49.059 49.109C49.0543 48.4844 48.8098 47.8854 48.376 47.436C47.8967 47.0119 47.3029 46.7388 46.669 46.651C44.8762 46.2495 43.0452 46.0436 41.208 46.037C37.1224 46.032 33.1202 47.1924 29.671 49.382C28.118 50.389 25.899 51.976 22.981 54.161C19.9261 56.5046 16.337 58.0529 12.536 58.667C11.7923 58.7998 11.0384 58.8667 10.283 58.867C9.073 58.8699 7.87172 58.6622 6.73298 58.253C4.97434 57.6891 3.45864 56.5459 2.43299 55.01C1.48624 53.5591 0.987491 51.8615 0.998973 50.129C1.00326 48.6572 1.35407 47.2071 2.02299 45.896C2.43092 45.073 3.10457 44.4117 3.93498 44.019C4.78273 43.594 5.71768 43.3718 6.666 43.37C7.52295 43.3684 8.37112 43.5427 9.158 43.882C9.92197 44.1969 10.5752 44.7314 11.035 45.418C11.4417 45.8438 11.6838 46.4003 11.718 46.988C11.6977 47.3652 11.5536 47.7251 11.308 48.012C11.0953 47.9914 10.8935 47.9082 10.728 47.773C10.6121 47.6547 10.5195 47.5156 10.455 47.363C10.387 47.209 10.335 47.073 10.284 46.988C9.94089 46.3086 9.46481 45.705 8.88398 45.213C8.35803 44.8358 7.7218 44.6438 7.07499 44.667C6.09029 44.614 5.11299 44.8642 4.27497 45.384C3.52194 45.9602 2.97205 46.7613 2.705 47.671C2.44 48.4871 2.30172 49.339 2.29499 50.197C2.25651 52.0609 2.95592 53.8644 4.24098 55.215C5.59237 56.6241 7.44348 57.4455 9.395 57.502C12.7694 57.7065 16.1202 56.821 18.953 54.976C22.042 52.876 23.783 51.699 24.141 51.426L26.735 49.651C31.1043 46.5964 35.3597 44.958 39.501 44.736C40.1136 44.6794 40.7289 44.6566 41.344 44.668C44.0536 44.6649 46.7476 45.0794 49.331 45.897C51.84 46.665 53.581 48.542 54.588 51.497C55.6927 54.5476 56.3371 57.7457 56.5 60.986C56.5459 61.7644 56.637 62.5393 56.773 63.307C56.8138 63.5052 56.8957 63.6927 57.0133 63.8573C57.1309 64.022 57.2818 64.1602 57.456 64.263C58.1419 64.6431 58.8483 64.985 59.572 65.287C59.1296 65.3102 58.6996 65.4407 58.3189 65.6671C57.9383 65.8936 57.6184 66.2093 57.387 66.587C57.0717 67.5078 56.9555 68.485 57.046 69.454C57.097 70.905 57.114 73.123 57.114 76.076V82.698C57.0674 86.449 56.2299 90.1479 54.656 93.553C54.0876 94.8688 53.2458 96.0485 52.1865 97.014C51.1272 97.9795 49.8746 98.7087 48.512 99.153C47.9524 99.4 47.3512 99.5392 46.74 99.563ZM46.877 97.993C47.747 97.993 48.377 97.393 48.788 96.218C49.3814 94.3423 49.8376 92.4259 50.153 90.484C50.4239 88.3326 50.5609 86.1664 50.563 83.998L50.495 79.083C50.41 76.898 50.358 75.243 50.358 74.099C50.358 73.199 50.409 71.778 50.495 69.866H50.295C50.0155 69.8548 49.7366 69.9015 49.476 70.003C49.3047 70.0827 49.1531 70.1991 49.032 70.344C48.913 70.481 48.844 70.566 48.793 70.617C44.7834 75.0683 42.6119 80.8751 42.717 86.865C42.7412 89.5544 43.0618 92.2329 43.673 94.852C43.8552 95.6125 44.2593 96.3017 44.834 96.832C45.067 97.1649 45.371 97.4417 45.7242 97.6425C46.0774 97.8433 46.4718 97.9631 46.877 97.993Z" fill="#BF6F6F"/>
<path d="M79.646 83.758C78.5166 82.5583 77.8408 81.0023 77.735 79.358C77.6783 78.7454 77.6556 78.1302 77.667 77.515L77.735 73.76V73.487C77.7304 73.2298 77.6736 72.9761 77.5681 72.7415C77.4625 72.5068 77.3104 72.2961 77.121 72.122L76.302 73.622C75.022 75.892 74.186 77.309 73.776 77.855C73.1913 78.7924 72.4249 79.6033 71.522 80.24C70.7493 80.7384 69.8475 80.9995 68.928 80.991C68.0197 80.987 67.119 80.8253 66.266 80.513C65.0652 80.1721 64.0028 79.4604 63.2305 78.4797C62.4583 77.499 62.0157 76.2993 61.966 75.052C61.9101 74.4621 61.8874 73.8695 61.898 73.277C61.8449 69.7132 62.9733 66.232 65.107 63.377C65.9076 62.3875 66.9233 61.5938 68.077 61.056C69.2179 60.5138 70.4658 60.2339 71.729 60.237C73.1274 60.2059 74.5042 60.5856 75.689 61.329C76.2989 61.7632 76.81 62.3214 77.189 62.967C77.5897 63.452 78.0242 63.9081 78.489 64.332C78.8565 64.0572 79.1305 63.6759 79.274 63.24C79.3813 62.9147 79.5065 62.5955 79.649 62.284C79.8333 61.8947 80.0626 61.5282 80.332 61.192C80.4382 61.06 80.5736 60.9542 80.7275 60.8831C80.8814 60.812 81.0496 60.7774 81.219 60.782C81.4288 60.8004 81.6353 60.8465 81.833 60.919C82.5017 61.0811 83.1074 61.4374 83.574 61.943C83.7658 62.1643 83.8954 62.4326 83.9494 62.7204C84.0033 63.0083 83.9797 63.3053 83.881 63.581C83.5898 64.9333 83.3847 66.3027 83.267 67.681L83.067 69.729C82.796 71.8804 82.6591 74.0466 82.657 76.215C82.657 77.529 82.674 78.515 82.725 79.151C82.7697 80.1533 82.9653 81.143 83.305 82.087C83.4554 82.4507 83.7045 82.7652 84.0242 82.9949C84.3438 83.2246 84.7213 83.3604 85.114 83.387C85.4478 83.4976 85.8065 83.5081 86.1461 83.4171C86.4857 83.3261 86.7913 83.1377 87.025 82.875C87.6385 82.1047 88.1651 81.269 88.595 80.383L91.735 74.375C91.923 74.051 92.179 73.522 92.52 72.775C92.8168 72.0942 93.2462 71.4793 93.783 70.966C94.193 71.154 94.397 71.393 94.397 71.717C94.3557 71.9734 94.2887 72.2251 94.197 72.468C93.297 74.328 92.712 75.455 92.49 75.813L89.759 81.479C89.3027 82.688 88.476 83.722 87.397 84.4331C86.3181 85.1443 85.042 85.4963 83.751 85.439C82.9872 85.4619 82.2271 85.3241 81.52 85.0345C80.8128 84.7449 80.1744 84.3101 79.646 83.758ZM70.874 78.979C71.4114 78.4655 71.9027 77.9056 72.342 77.306C74.4067 74.5626 75.9989 71.4938 77.053 68.226C77.1901 67.8065 77.2576 67.3674 77.253 66.926C77.2446 65.9829 76.9727 65.0608 76.468 64.264C75.9821 63.4387 75.2875 62.7558 74.454 62.284C73.8046 61.9209 73.0809 61.7109 72.338 61.67C71.195 61.67 70.358 62.438 69.812 63.991C68.6072 67.3825 67.8498 70.9166 67.559 74.504C67.559 74.726 67.542 74.965 67.525 75.187C67.5012 75.3922 67.5127 75.5998 67.559 75.801C67.6019 76.58 67.7513 77.3496 68.003 78.088C68.1229 78.3657 68.3054 78.6119 68.5363 78.8072C68.7673 79.0026 69.0403 79.1418 69.334 79.214C69.5878 79.3172 69.8648 79.3499 70.1357 79.3087C70.4066 79.2675 70.6613 79.1539 70.873 78.98L70.874 78.979Z" fill="#BF6F6F"/>
<path d="M109.41 82.837C108.778 81.4526 108.364 79.9789 108.181 78.468C108.13 78.195 108.096 77.868 108.045 77.478C108.003 77.1725 107.98 76.8645 107.977 76.556C107.996 75.3108 107.835 74.0693 107.499 72.87L106.338 74.781C105.747 75.8695 105.085 76.9184 104.358 77.921C103.835 78.7636 103.151 79.4943 102.344 80.071C101.662 80.5067 100.866 80.7321 100.057 80.719C99.2001 80.6992 98.3501 80.5612 97.5309 80.309C96.0646 80.0233 94.7603 79.1943 93.879 77.988C93.0866 76.5252 92.7201 74.8696 92.821 73.209C92.7914 70.2392 93.4948 67.308 94.8689 64.675C95.6082 63.253 96.7473 62.0785 98.1459 61.296C99.5314 60.4764 101.11 60.0404 102.72 60.033C104.363 59.9893 105.966 60.5477 107.226 61.603L108.045 62.013C108.361 61.5779 108.571 61.0753 108.659 60.545C108.747 60.0262 108.792 59.5012 108.795 58.975V57.78C109.339 52.4019 110.745 47.1464 112.959 42.215C113.891 40.087 115.319 38.2135 117.125 36.7518C118.931 35.2902 121.061 34.2831 123.336 33.815C124.008 33.6592 124.694 33.5678 125.384 33.542C126.175 33.5453 126.96 33.6839 127.705 33.952C128.958 34.2886 130.048 35.064 130.777 36.137C131.468 37.363 131.8 38.7591 131.733 40.165C131.617 43.0787 130.721 45.9079 129.139 48.357C127.078 51.7128 124.676 54.8471 121.971 57.71L120.471 59.417C119.737 60.287 118.952 61.158 118.116 62.045C117.355 62.86 116.521 63.6028 115.624 64.264C115.072 64.6659 114.619 65.1885 114.3 65.7919C113.98 66.3953 113.803 67.0637 113.781 67.746C113.587 69.5142 113.495 71.2922 113.508 73.071C113.492 75.2195 113.652 77.3656 113.986 79.488C114.024 79.7672 114.091 80.0416 114.186 80.307C114.263 80.5082 114.33 80.7131 114.386 80.921C114.607 81.5674 114.942 82.1687 115.376 82.696C115.525 82.8664 115.709 83.0032 115.915 83.0974C116.121 83.1915 116.344 83.2408 116.571 83.242C117.313 83.1504 118.018 82.8682 118.619 82.423C122.292 80.1121 125.723 77.4362 128.859 74.436L143.537 60.373C146.092 57.9608 148.819 55.7363 151.695 53.717C154.299 51.9022 157.135 50.4443 160.126 49.382C162.335 48.5594 164.669 48.1197 167.026 48.082C169.711 48.0569 172.345 48.8163 174.604 50.267C176.325 51.2795 177.738 52.7431 178.688 54.4996C179.639 56.2562 180.091 58.239 179.997 60.234C180.011 60.9874 179.966 61.7408 179.861 62.487C179.682 64.5646 178.884 66.5407 177.569 68.1595C176.255 69.7783 174.485 70.9654 172.488 71.567C171.672 71.8319 170.82 71.9702 169.962 71.977C168.292 71.9978 166.678 71.3743 165.456 70.236C164.167 69.0552 163.364 67.4367 163.203 65.696C163.148 65.4496 163.125 65.1972 163.135 64.945C163.13 64.2773 163.26 63.6155 163.518 62.9995C163.776 62.3835 164.156 61.8262 164.635 61.361C165.567 60.376 166.745 59.6574 168.048 59.279C168.185 59.194 168.372 59.262 168.594 59.479C168.657 59.5187 168.709 59.5742 168.744 59.64C168.779 59.7057 168.796 59.7795 168.794 59.854C168.792 59.9369 168.765 60.0171 168.716 60.0841C168.667 60.1511 168.599 60.2016 168.521 60.229C167.972 60.6238 167.402 60.9883 166.814 61.321C166.143 61.6616 165.58 62.18 165.184 62.8195C164.788 63.459 164.576 64.1951 164.571 64.947C164.592 65.3365 164.637 65.7243 164.707 66.108C164.866 67.4109 165.524 68.6015 166.542 69.429C167.561 70.2566 168.861 70.6567 170.169 70.545C171.822 70.5222 173.424 69.9722 174.743 68.975C175.993 67.9984 176.988 66.7337 177.643 65.289C178.307 63.8321 178.644 62.2479 178.633 60.647C178.646 58.6367 178.129 56.6584 177.133 54.912C176.179 53.1829 174.729 51.7797 172.969 50.884C171.12 49.9794 169.088 49.5124 167.03 49.519C164.959 49.5524 162.907 49.9212 160.954 50.611C157.962 51.6113 155.124 53.025 152.523 54.811C149.705 56.7729 147.046 58.953 144.57 61.331C141.293 64.3857 137.652 67.8674 133.647 71.776C133.596 71.827 132.401 72.954 130.029 75.189C126.571 78.5149 122.773 81.4669 118.696 83.996C117.396 84.8594 115.886 85.3549 114.327 85.43C113.702 85.4416 113.079 85.3493 112.484 85.157C111.837 85.0093 111.228 84.7262 110.698 84.3263C110.169 83.9264 109.729 83.4189 109.41 82.837ZM103.061 77.237C105.118 74.4782 106.73 71.4145 107.84 68.157C107.967 67.7129 108.034 67.2539 108.04 66.792C108.036 65.8769 107.813 64.976 107.391 64.164C107 63.3678 106.398 62.6945 105.65 62.218C104.962 61.6868 104.129 61.3774 103.261 61.331C102.032 61.331 101.145 62.167 100.599 63.857C99.4062 67.175 98.6937 70.6464 98.483 74.166V75.429C98.4742 76.0878 98.5663 76.7441 98.756 77.375C99.08 78.519 99.6429 79.082 100.463 79.082C101.075 79.0142 101.65 78.7508 102.101 78.331C102.456 77.9996 102.778 77.6338 103.061 77.239V77.237ZM118.968 58.937C122.296 55.5887 125.271 51.9059 127.843 47.947C129.475 45.5761 130.355 42.769 130.369 39.891C130.431 39.1583 130.314 38.4214 130.029 37.7437C129.743 37.066 129.297 36.4677 128.73 36C127.742 35.2734 126.543 34.8899 125.317 34.908C124.212 34.9011 123.126 35.196 122.177 35.761C121.231 36.3223 120.489 37.1718 120.061 38.185C119.105 40.3697 118.126 42.941 117.125 45.899C116.508 47.5143 116.039 49.1826 115.725 50.883C115.435 52.521 115.076 54.791 114.667 57.71C114.394 59.98 114.172 61.687 113.984 62.83L114.667 63.171L118.968 58.937Z" fill="#BF6F6F"/>
</svg>
