<svg width="266" height="164" viewBox="0 0 266 164" fill="none" xmlns="http://www.w3.org/2000/svg">
<g clip-path="url(#clip0_129_1070)">
<path d="M263.523 150.05V152.804H2.47754V150.05H13.8553H252.145H263.523Z" fill="#EFD6D1"/>
<path d="M2.56934 155.098H263.431C263.064 156.658 261.963 158.126 260.495 159.32C258.66 160.696 256.274 161.614 254.164 161.614H11.9284C9.81804 161.614 7.43239 160.696 5.59728 159.32C4.12918 158.126 2.93636 156.658 2.56934 155.098Z" fill="#EFD6D1"/>
<path d="M251.044 8.44309V147.756H14.9561V8.44309C14.9561 6.79116 15.5983 5.32277 16.6994 4.22149C17.8005 3.1202 19.2686 2.47778 20.9202 2.47778H245.08C246.731 2.47778 248.199 3.1202 249.3 4.22149C250.401 5.32277 251.044 6.79116 251.044 8.44309ZM241.042 138.487V14.6837C241.042 14.0413 240.492 13.5824 239.941 13.5824H26.0585C25.4162 13.5824 24.9574 14.1331 24.9574 14.6837V138.487C24.9574 139.129 25.508 139.588 26.0585 139.588H239.941C240.584 139.68 241.042 139.129 241.042 138.487Z" fill="#710234"/>
<path d="M238.84 137.386V15.7851H27.1597V137.386H238.84ZM241.042 14.6838V138.487C241.042 139.129 240.492 139.588 239.941 139.588H26.0586C25.4163 139.588 24.9575 139.129 24.9575 138.487V14.6838C24.9575 14.0414 25.5081 13.5825 26.0586 13.5825H239.941C240.584 13.5825 241.042 14.0414 241.042 14.6838Z" fill="#710234"/>
<path d="M251.044 147.756V8.44315C251.044 6.79122 250.402 5.32283 249.301 4.22155C248.199 3.12026 246.731 2.47784 245.08 2.47784H20.9204C19.2688 2.47784 17.8007 3.12026 16.6996 4.22155C15.5986 5.32283 14.9563 6.79122 14.9563 8.44315V147.756H251.044ZM2.56924 155.098C2.93627 156.658 4.03734 158.126 5.50543 159.319C7.34055 160.696 9.7262 161.614 11.8366 161.614H254.072C256.182 161.614 258.568 160.696 260.403 159.319C261.871 158.218 263.064 156.75 263.339 155.098H2.56924ZM12.7541 8.44315C12.7541 3.94622 16.4244 0.275269 20.9204 0.275269H245.08C249.576 0.275269 253.246 3.94622 253.246 8.44315V147.756H264.624C265.266 147.756 265.725 148.215 265.725 148.857V153.905C265.725 156.474 264.348 159.044 261.779 160.971C259.577 162.715 256.641 163.725 253.98 163.725H11.9283C9.35917 163.725 6.42299 162.715 4.12909 160.971C1.65169 159.044 0.183594 156.566 0.183594 153.905V148.857C0.183594 148.215 0.642373 147.756 1.28466 147.756H12.6624V8.44315H12.7541ZM252.145 150.05H13.8552H2.47749V152.895H263.523V150.05H252.145Z" fill="#710234"/>
</g>
<defs>
<clipPath id="clip0_129_1070">
<rect width="266" height="164" fill="white"/>
</clipPath>
</defs>
</svg>
