<svg width="28" height="20" viewBox="0 0 28 20" fill="none" xmlns="http://www.w3.org/2000/svg">
<path fill-rule="evenodd" clip-rule="evenodd" d="M0 9.79998C0 9.02679 0.6268 8.39999 1.4 8.39999H26.5999C27.3731 8.39999 27.9999 9.02679 27.9999 9.79998C27.9999 10.5732 27.3731 11.2 26.5999 11.2H1.4C0.6268 11.2 0 10.5732 0 9.79998Z" fill="#710234"/>
<path fill-rule="evenodd" clip-rule="evenodd" d="M0 1.4C0 0.6268 0.6268 0 1.4 0H26.5999C27.3731 0 27.9999 0.6268 27.9999 1.4C27.9999 2.17319 27.3731 2.79999 26.5999 2.79999H1.4C0.6268 2.79999 0 2.17319 0 1.4Z" fill="#710234"/>
<path fill-rule="evenodd" clip-rule="evenodd" d="M0 18.1999C0 17.4267 0.6268 16.7999 1.4 16.7999H26.5999C27.3731 16.7999 27.9999 17.4267 27.9999 18.1999C27.9999 18.9731 27.3731 19.5999 26.5999 19.5999H1.4C0.6268 19.5999 0 18.9731 0 18.1999Z" fill="#710234"/>
</svg>
