<svg width="99" height="186" viewBox="0 0 99 186" fill="none" xmlns="http://www.w3.org/2000/svg">
<g clip-path="url(#clip0_129_1079)">
<path d="M98.7351 11.0035V175.129C98.7351 180.962 93.964 185.735 88.1326 185.735H11.0001C5.16879 185.735 0.397705 180.962 0.397705 175.129V11.0035C0.397705 5.17033 5.16879 0.397705 11.0001 0.397705H88.1326C93.964 0.397705 98.7351 5.17033 98.7351 11.0035ZM95.4218 175.129V11.0035C95.4218 9.01495 94.6266 7.15893 93.3013 5.8332C91.976 4.50747 90.1206 3.71203 88.0001 3.71203H11.0001C9.01216 3.71203 7.15674 4.50747 5.69891 5.8332C4.37361 7.15893 3.57843 9.01495 3.57843 11.0035V175.129C3.57843 177.118 4.37361 178.974 5.69891 180.299C7.02421 181.625 8.87963 182.421 11.0001 182.421H88.1326C90.1206 182.421 91.976 181.625 93.4339 180.299C94.6266 178.974 95.4218 177.118 95.4218 175.129Z" fill="#710234"/>
<path d="M95.4218 11.0036V175.129C95.4218 177.118 94.6266 178.974 93.3013 180.299C91.976 181.625 90.1205 182.421 88.0001 182.421H11.0001C9.0121 182.421 7.15668 181.625 5.69885 180.299C4.37355 178.974 3.57837 177.118 3.57837 175.129V11.0036C3.57837 9.01496 4.37355 7.15894 5.69885 5.83321C7.02415 4.50747 8.87957 3.71204 11.0001 3.71204H88.1326C90.1205 3.71204 91.976 4.50747 93.4338 5.83321C94.6266 7.02636 95.4218 8.88239 95.4218 11.0036ZM91.3133 162.402V16.7042C91.3133 15.7762 90.6507 15.1133 89.723 15.1133H9.27716C8.34945 15.1133 7.6868 15.7762 7.6868 16.7042V162.402C7.6868 163.33 8.34945 163.993 9.27716 163.993H89.723C90.6507 163.993 91.3133 163.33 91.3133 162.402ZM61.229 172.212C61.229 169.693 59.241 167.705 56.7229 167.705H42.4097C39.8916 167.705 37.9037 169.693 37.9037 172.212C37.9037 174.731 39.8916 176.72 42.4097 176.72H56.7229C59.1085 176.852 61.229 174.731 61.229 172.212Z" fill="#710234"/>
<path d="M91.3133 16.7042V162.402C91.3133 163.33 90.6506 163.993 89.7229 163.993H9.27713C8.34942 163.993 7.68677 163.33 7.68677 162.402V16.7042C7.68677 15.7761 8.34942 15.1133 9.27713 15.1133H89.7229C90.6506 15.1133 91.3133 15.9087 91.3133 16.7042ZM88.1326 160.811V18.4276H10.8675V160.811H88.1326Z" fill="#710234"/>
</g>
<defs>
<clipPath id="clip0_129_1079">
<rect width="99" height="186" fill="white"/>
</clipPath>
</defs>
</svg>
