<svg width="643" height="543" viewBox="0 0 643 543" fill="none" xmlns="http://www.w3.org/2000/svg">
<g filter="url(#filter0_d_129_1061)">
<path fill-rule="evenodd" clip-rule="evenodd" d="M8.76579 103.166C20.6664 48.8299 51.3494 -0.961225 94.5299 -36.0248C136.672 -70.2448 191.893 -78.0977 245.121 -88.7607C300.469 -99.8482 358.143 -119.97 410.693 -99.3606C463.848 -78.5142 491.559 -23.1242 526.875 21.7391C565.418 70.7005 634.3 113.343 626.833 175.206C619.149 238.868 531.829 256.739 492.407 307.314C458.985 350.191 455.645 411.043 414.925 447.062C366.761 489.667 308.069 526.201 243.773 527.249C176.156 528.351 101.831 505.554 59.4509 452.854C18.0122 401.325 39.0002 326.259 29.515 260.819C21.7547 207.278 -2.80884 156.013 8.76579 103.166Z" fill="#710234"/>
</g>
<defs>
<filter id="filter0_d_129_1061" x="0.717285" y="-113.268" width="641.677" height="655.554" filterUnits="userSpaceOnUse" color-interpolation-filters="sRGB">
<feFlood flood-opacity="0" result="BackgroundImageFix"/>
<feColorMatrix in="SourceAlpha" type="matrix" values="0 0 0 0 0 0 0 0 0 0 0 0 0 0 0 0 0 0 127 0" result="hardAlpha"/>
<feOffset dx="5" dy="5"/>
<feGaussianBlur stdDeviation="5"/>
<feComposite in2="hardAlpha" operator="out"/>
<feColorMatrix type="matrix" values="0 0 0 0 0 0 0 0 0 0 0 0 0 0 0 0 0 0 0.16 0"/>
<feBlend mode="normal" in2="BackgroundImageFix" result="effect1_dropShadow_129_1061"/>
<feBlend mode="normal" in="SourceGraphic" in2="effect1_dropShadow_129_1061" result="shape"/>
</filter>
</defs>
</svg>
